<svg viewBox="0 0 115 38" fill="none" xmlns="http://www.w3.org/2000/svg">
<g>
<path d="M6.67028 30.8428H18.2545V36.7071H0V1.29272H6.67028V30.8428Z" fill="#301B0A"/>
<path d="M30.6763 26.2195C30.6763 29.5216 32.4386 31.5726 37.4187 31.5726C42.3989 31.5726 44.089 29.5216 44.089 26.2195V12.2895C44.089 8.91531 42.4049 6.86431 37.4187 6.86431C32.4326 6.86431 30.6763 8.91531 30.6763 12.2895V26.2195ZM50.8375 26.5864C50.8375 32.4507 47.3911 37.4369 37.4187 37.4369C27.4464 37.4369 24 32.4507 24 26.5864V11.9227C24 5.98617 27.4464 1 37.4187 1C47.3911 1 50.8375 5.98617 50.8375 11.9227V26.5864Z" fill="#301B0A"/>
<path d="M94.6763 26.2195C94.6763 29.5216 96.4386 31.5726 101.419 31.5726C106.399 31.5726 108.089 29.5216 108.089 26.2195V12.2895C108.089 8.91531 106.405 6.86431 101.419 6.86431C96.4326 6.86431 94.6763 8.91531 94.6763 12.2895V26.2195ZM114.837 26.5864C114.837 32.4507 111.391 37.4369 101.419 37.4369C91.4464 37.4369 88 32.4507 88 26.5864V11.9227C88 5.98617 91.4464 1 101.419 1C111.391 1 114.837 5.98617 114.837 11.9227V26.5864Z" fill="#301B0A"/>
<path d="M63.8892 25.7845C63.8892 29.2309 65.3568 31.2097 70.0482 31.2097C71.8827 31.2097 73.7112 31.0654 75.5456 30.8428V20.0645H81.849V35.6786C78.1079 36.7072 73.7111 37.2184 69.97 37.2184C61.3209 37.2184 57.2129 33.5555 57.2129 26.5905V11.4876C57.2189 4.15573 61.4713 0.781494 70.6316 0.781494C73.4886 0.781494 77.5966 1.07621 80.8205 1.95436L80.0145 7.81867C76.7907 7.08487 73.5608 6.86835 70.1204 6.86835C65.4289 6.86835 63.8892 8.775 63.8892 12.3658V25.7845Z" fill="#301B0A"/>
</g>
<defs>
<clipPath id="clip0_2202_3">
</clipPath>
</defs>
</svg>
